<svg width="61" height="99" viewBox="0 0 61 99" fill="none" xmlns="http://www.w3.org/2000/svg">
<rect x="22.5" y="2.5" width="36" height="94" stroke="#283734" stroke-opacity="0.2" stroke-width="5"/>
<path d="M5 22.5C5 23.8807 3.88071 25 2.5 25C1.11929 25 0 23.8807 0 22.5C0 21.1193 1.11929 20 2.5 20C3.88071 20 5 21.1193 5 22.5Z" fill="#D2D6DB"/>
<path d="M20 22.5C20 23.8807 18.8807 25 17.5 25C16.1193 25 15 23.8807 15 22.5C15 21.1193 16.1193 20 17.5 20C18.8807 20 20 21.1193 20 22.5Z" fill="#D2D6DB"/>
<path d="M35 22.5C35 23.8807 33.8807 25 32.5 25C31.1193 25 30 23.8807 30 22.5C30 21.1193 31.1193 20 32.5 20C33.8807 20 35 21.1193 35 22.5Z" fill="#D2D6DB"/>
<path d="M50 22.5C50 23.8807 48.8807 25 47.5 25C46.1193 25 45 23.8807 45 22.5C45 21.1193 46.1193 20 47.5 20C48.8807 20 50 21.1193 50 22.5Z" fill="#D2D6DB"/>
<path d="M5 37.5C5 38.8807 3.88071 40 2.5 40C1.11929 40 0 38.8807 0 37.5C0 36.1193 1.11929 35 2.5 35C3.88071 35 5 36.1193 5 37.5Z" fill="#D2D6DB"/>
<path d="M20 37.5C20 38.8807 18.8807 40 17.5 40C16.1193 40 15 38.8807 15 37.5C15 36.1193 16.1193 35 17.5 35C18.8807 35 20 36.1193 20 37.5Z" fill="#D2D6DB"/>
<path d="M35 37.5C35 38.8807 33.8807 40 32.5 40C31.1193 40 30 38.8807 30 37.5C30 36.1193 31.1193 35 32.5 35C33.8807 35 35 36.1193 35 37.5Z" fill="#D2D6DB"/>
<path d="M50 37.5C50 38.8807 48.8807 40 47.5 40C46.1193 40 45 38.8807 45 37.5C45 36.1193 46.1193 35 47.5 35C48.8807 35 50 36.1193 50 37.5Z" fill="#D2D6DB"/>
<path d="M5 52.5C5 53.8807 3.88071 55 2.5 55C1.11929 55 0 53.8807 0 52.5C0 51.1193 1.11929 50 2.5 50C3.88071 50 5 51.1193 5 52.5Z" fill="#D2D6DB"/>
<path d="M20 52.5C20 53.8807 18.8807 55 17.5 55C16.1193 55 15 53.8807 15 52.5C15 51.1193 16.1193 50 17.5 50C18.8807 50 20 51.1193 20 52.5Z" fill="#D2D6DB"/>
<path d="M35 52.5C35 53.8807 33.8807 55 32.5 55C31.1193 55 30 53.8807 30 52.5C30 51.1193 31.1193 50 32.5 50C33.8807 50 35 51.1193 35 52.5Z" fill="#D2D6DB"/>
<path d="M50 52.5C50 53.8807 48.8807 55 47.5 55C46.1193 55 45 53.8807 45 52.5C45 51.1193 46.1193 50 47.5 50C48.8807 50 50 51.1193 50 52.5Z" fill="#D2D6DB"/>
<path d="M5 67.5C5 68.8807 3.88071 70 2.5 70C1.11929 70 0 68.8807 0 67.5C0 66.1193 1.11929 65 2.5 65C3.88071 65 5 66.1193 5 67.5Z" fill="#D2D6DB"/>
<path d="M20 67.5C20 68.8807 18.8807 70 17.5 70C16.1193 70 15 68.8807 15 67.5C15 66.1193 16.1193 65 17.5 65C18.8807 65 20 66.1193 20 67.5Z" fill="#D2D6DB"/>
<path d="M35 67.5C35 68.8807 33.8807 70 32.5 70C31.1193 70 30 68.8807 30 67.5C30 66.1193 31.1193 65 32.5 65C33.8807 65 35 66.1193 35 67.5Z" fill="#D2D6DB"/>
<path d="M50 67.5C50 68.8807 48.8807 70 47.5 70C46.1193 70 45 68.8807 45 67.5C45 66.1193 46.1193 65 47.5 65C48.8807 65 50 66.1193 50 67.5Z" fill="#D2D6DB"/>
</svg>
