<?xml version="1.0" encoding="UTF-8" standalone="no"?> <svg width="64" height="64" viewBox="0 0 64 64" fill="none" xmlns="http://www.w3.org/2000/svg">
<path d="M60.68 45.48C60.4589 44.9218 60.127 44.4142 59.7041 43.9879C59.2813 43.5617 58.7764 43.2256 58.22 43C57.6822 42.7723 57.1041 42.6549 56.52 42.6549C55.9359 42.6549 55.3578 42.7723 54.82 43L42.09 47.51C42.1336 47.2556 42.157 46.9981 42.16 46.74C42.16 45.6049 41.7091 44.5162 40.9064 43.7136C40.1038 42.9109 39.0151 42.46 37.88 42.46H34.58C31.6453 42.4574 28.7553 41.7401 26.16 40.37C23.2789 38.8464 20.0691 38.05 16.81 38.05H11.81V34.5C11.81 34.2348 11.7046 33.9804 11.5171 33.7929C11.3296 33.6054 11.0752 33.5 10.81 33.5H4C3.73478 33.5 3.48043 33.6054 3.29289 33.7929C3.10536 33.9804 3 34.2348 3 34.5V59C3 59.2652 3.10536 59.5196 3.29289 59.7071C3.48043 59.8946 3.73478 60 4 60H10.81C11.0752 60 11.3296 59.8946 11.5171 59.7071C11.7046 59.5196 11.81 59.2652 11.81 59V56.75C13.6051 56.8324 15.3795 57.1691 17.08 57.75L22.22 59.57C24.8546 60.4967 27.6272 60.9701 30.42 60.97H31.42C34.4138 60.8345 37.3582 60.1569 40.11 58.97L58.54 51.1C59.5302 50.5955 60.2976 49.741 60.6931 48.7024C61.0886 47.6638 61.0839 46.5153 60.68 45.48V45.48ZM9.81 58H5V35.5H9.81V58ZM57.73 49.32L39.36 57.17C36.8274 58.2604 34.1153 58.874 31.36 58.98C28.4717 59.1003 25.587 58.6693 22.86 57.71L17.74 55.9C15.8299 55.2299 13.8321 54.8425 11.81 54.75V40.05H16.81C19.7423 40.0465 22.6305 40.7643 25.22 42.14C28.1057 43.661 31.318 44.4572 34.58 44.46H37.88C38.1803 44.46 38.4776 44.5193 38.7548 44.6345C39.0321 44.7497 39.2839 44.9186 39.4958 45.1313C39.7076 45.3441 39.8753 45.5966 39.9893 45.8744C40.1033 46.1522 40.1613 46.4497 40.16 46.75C40.1617 47.0755 40.0919 47.3974 39.9554 47.6929C39.8188 47.9885 39.619 48.2503 39.37 48.46L37.69 49.05H26.78C26.5148 49.05 26.2604 49.1554 26.0729 49.3429C25.8854 49.5304 25.78 49.7848 25.78 50.05C25.78 50.3152 25.8854 50.5696 26.0729 50.7571C26.2604 50.9446 26.5148 51.05 26.78 51.05H37.88C38.02 51.05 55.56 44.89 55.56 44.89C55.8613 44.7587 56.1864 44.6909 56.515 44.6909C56.8436 44.6909 57.1687 44.7587 57.47 44.89C57.7752 45.0138 58.0521 45.1982 58.2841 45.4319C58.5161 45.6657 58.6984 45.9439 58.82 46.25C59.0445 46.8081 59.0577 47.4289 58.857 47.996C58.6563 48.563 58.2556 49.0374 57.73 49.33V49.32Z" fill="black"/>
<path d="M26.0801 31.88L42.8101 40.88C42.9547 40.957 43.1161 40.9973 43.2801 40.9973C43.444 40.9973 43.6054 40.957 43.7501 40.88L60.4701 31.88C60.6297 31.795 60.7634 31.6682 60.8567 31.5132C60.95 31.3583 60.9996 31.1809 61.0001 31V13C60.9996 12.8191 60.95 12.6417 60.8567 12.4867C60.7634 12.3318 60.6297 12.205 60.4701 12.12L43.7501 3.11999C43.6054 3.04295 43.444 3.00266 43.2801 3.00266C43.1161 3.00266 42.9547 3.04295 42.8101 3.11999L26.0801 12.12C25.9222 12.2063 25.7906 12.3337 25.6991 12.4885C25.6076 12.6434 25.5596 12.8201 25.5601 13V31C25.5596 31.1799 25.6076 31.3566 25.6991 31.5114C25.7906 31.6663 25.9222 31.7936 26.0801 31.88V31.88ZM27.5601 14.67L42.2801 22.6V38.33L27.5601 30.4V14.67ZM32.7501 10.8L46.8501 18.94L43.2801 20.86L28.6701 13L32.7501 10.8ZM38.0001 7.99999L52.1101 16.14L48.9501 17.84L34.8201 9.68999L38.0001 7.99999ZM50.1301 19.45L52.9001 18V21.3L52.1601 20.56C52.0436 20.4447 51.9007 20.3598 51.7437 20.3127C51.5868 20.2656 51.4207 20.2578 51.2601 20.29C51.1002 20.3236 50.9509 20.3958 50.8254 20.5004C50.6999 20.605 50.6019 20.7388 50.5401 20.89L50.1301 21.89V19.45ZM44.2801 38.33V22.6L48.1301 20.53V26.91C48.1328 27.1395 48.2143 27.361 48.361 27.5375C48.5078 27.714 48.7107 27.8346 48.9358 27.8792C49.161 27.9238 49.3946 27.8895 49.5975 27.7822C49.8003 27.675 49.9602 27.5011 50.0501 27.29L51.8101 23L53.2001 24.38C53.3404 24.5176 53.5183 24.6108 53.7113 24.6479C53.9044 24.685 54.1041 24.6644 54.2855 24.5886C54.4668 24.5129 54.6219 24.3853 54.7312 24.2219C54.8405 24.0585 54.8993 23.8666 54.9001 23.67V16.88L59.0001 14.67V30.4L44.2801 38.33ZM43.2801 5.13999L57.8901 13L54.1501 15L40.0501 6.87999L43.2801 5.13999Z" fill="black"/>
</svg>
