<?xml version="1.0" encoding="UTF-8" standalone="no"?> <svg xmlns="http://www.w3.org/2000/svg" viewBox="0 0 64 64"><g id="Layer_38" data-name="Layer 38"><path d="M59,12.59A8,8,0,0,0,52.32,9H48.17V5.5a1,1,0,0,0-1-1H16.85a1,1,0,0,0-1,1V9H11.68A8,8,0,0,0,5,12.59c-4.91,8,5,17,12.91,16.94a16.29,16.29,0,0,0,6.37,6.33v1.23a5,5,0,0,0,4,4.93V52.58H23.77A1,1,0,0,0,23,53l-4,4.92a1,1,0,0,0,.78,1.63H44.25A1,1,0,0,0,45,57.87L41,53a1,1,0,0,0-.77-.37H35.73V42a5,5,0,0,0,4-4.93V35.86a16.31,16.31,0,0,0,6.37-6.34C54,29.55,63.93,20.6,59,12.59ZM6.13,19.39A6.08,6.08,0,0,1,11.68,11h4.17c.18,4.07-.65,12.76,1.08,16.46A13.38,13.38,0,0,1,6.13,19.39Zm36,38.11H21.87l2.37-2.92H39.77ZM30.29,52.58V42.12h3.44V52.58Zm7.47-15.49a3,3,0,0,1-3,3H29.29a3.07,3.07,0,0,1-3-3.35,16.05,16.05,0,0,0,11.5,0ZM32,35.85A14.18,14.18,0,0,1,17.85,21.69V6.5H46.17V21.69A14.18,14.18,0,0,1,32,35.85ZM57.87,19.39a13.38,13.38,0,0,1-10.78,8.06C48.82,23.78,48,15,48.17,11h4.15A6.08,6.08,0,0,1,57.87,19.39Z"/></g></svg>