<?xml version="1.0" encoding="UTF-8"?>
<svg aria-labelledby="MDRT-logo" width="230px" height="57px" viewBox="0 0 230 57" version="1.1" xmlns="http://www.w3.org/2000/svg" xmlns:xlink="http://www.w3.org/1999/xlink">
    <title id="MDRT-logo">MDRT Logo</title>
    <g id="Symbols" stroke="none" stroke-width="1" fill="none" fill-rule="evenodd">
        <g id="MDRT-Logo" fill="#1853A3">
            <path d="M32.7324949,12.2802995 C33.2890039,12.2646782 36.559715,12.1768083 36.559715,12.1768083 L36.559715,14.0357438 C37.8562834,14.0357438 39.1313725,14.0728444 40.3888877,14.1353296 L40.3888877,14.2251521 C40.2951599,14.3735546 39.9085325,14.916395 38.9732068,15.4104188 C37.9246266,15.9630225 36.7666973,16.2637326 36.559715,16.3125492 L36.559715,14.0357438 C35.2650992,14.0357438 33.9880574,14.0728444 32.7324949,14.1353296 L32.7324949,12.2802995 Z M32.0373468,14.4126078 L32.0764,14.4887617 C32.0959267,14.521957 32.5411339,15.3440282 33.822081,16.023555 C35.0483536,16.6718393 36.4249812,16.9959814 36.4816084,17.00965 L36.559715,17.027224 L36.6397742,17.00965 C36.6983541,16.9959814 38.0710764,16.6718393 39.2973489,16.023555 C40.578296,15.3440282 41.0235033,14.521957 41.0410772,14.4887617 L41.0820832,14.4126078 L41.0820832,11.604678 L36.559715,11.4816602 L32.3653942,11.5949147 L32.0295361,11.604678 L32.0373468,11.9424887 L32.0373468,14.4126078 Z M65.9082444,19.7902425 C66.4608481,20.2315445 66.9704932,20.692373 67.4293691,21.1610122 L63.2409063,21.9284089 C63.6861135,22.4048587 64.0551669,22.8832612 64.3832143,23.3655691 C64.2523859,23.3909537 64.170374,23.406575 64.170374,23.406575 C64.1899007,23.4046223 62.4949889,23.5217821 60.7668819,23.2816045 C59.769071,23.1429654 58.980195,22.9457464 58.4764079,22.8012494 L63.2409063,21.9284089 C62.7937464,21.451959 62.2899593,20.9969885 61.7510242,20.5517812 C62.8952849,20.3408936 65.3068241,19.9015444 65.9082444,19.7902425 Z M58.5232718,21.25474 C57.5801354,22.055332 57.408301,22.8363973 57.4004904,22.8656872 L57.3399578,23.1605394 L57.6191887,23.2640306 C57.6699579,23.2816045 58.8708458,23.7190011 60.6712014,23.9669893 C62.4735096,24.2188829 64.1840427,24.0997705 64.2562912,24.0939125 C64.2933918,24.0880545 69.2707306,23.1761607 69.2707306,23.1761607 L69.772565,23.0843855 L69.5011448,22.6508943 C69.1203755,22.0416633 68.647831,21.434385 68.0991326,20.8485861 C67.5484815,20.2608344 66.919724,19.6887041 66.2265285,19.1458637 L66.101558,19.0501832 L65.9492503,19.0794731 L60.9719116,19.9933195 C60.8703731,20.0206568 59.4332129,20.483438 58.5232718,21.25474 Z M27.4290614,40.9024382 C27.1634992,40.8633849 24.6523742,40.4806629 23.8888828,40.3635031 L25.5095934,38.6314907 C24.345806,38.4186504 23.2308353,38.1765202 22.1510125,37.9129106 C22.3267522,37.8113721 23.2366933,37.3095377 24.6601848,36.9814902 C25.8434988,36.71007 26.9350376,36.6026736 27.4407774,36.5675256 L25.5095934,38.6314907 C26.677286,38.844331 27.8566946,39.0239761 29.0439139,39.1743311 C28.5655114,39.6878816 27.5930851,40.7247458 27.4290614,40.9024382 Z M27.9504225,35.8919041 L27.8684106,35.8469929 L27.7746828,35.8508982 C27.7082922,35.8528509 26.1754515,35.9192414 24.5039718,36.3058687 C22.80906,36.6983541 21.7643851,37.331017 21.7194739,37.3603069 L21.6804206,37.3837389 L19.1692956,40.0686509 L23.5374034,41.0117873 L27.6946236,41.6444502 L27.8098307,41.5097164 L29.9206598,39.2602483 L29.9440917,39.1899524 C29.9577604,39.1508992 30.2838551,38.2468161 29.6238549,37.313443 C29.020482,36.4679398 27.9933811,35.9133834 27.9504225,35.8919041 Z M40.3888877,41.3632667 C39.8323787,41.3769353 36.559715,41.4648052 36.559715,41.4648052 L36.559715,39.6039171 C35.2650992,39.6039171 33.9880574,39.5707218 32.7324949,39.5043312 L32.7324949,39.4145087 C32.8262227,39.268059 33.2128501,38.7252186 34.1462231,38.2331474 C35.196756,37.678591 36.3546853,37.3798336 36.559715,37.3290643 L36.559715,39.6039171 C37.8562834,39.6039171 39.1313725,39.5707218 40.3888877,39.5043312 L40.3888877,41.3632667 Z M41.0820832,39.2290057 L41.0410772,39.1508992 C41.0235033,39.1157512 40.578296,38.2956326 39.2973489,37.6200111 C38.0691237,36.9697743 36.6983541,36.6475848 36.6397742,36.6339162 L36.559715,36.6143895 L36.4816084,36.6339162 C36.4230285,36.6475848 35.0483536,36.9697743 33.822081,37.6200111 C32.5411339,38.2956326 32.0959267,39.1157512 32.0764,39.1508992 L32.0373468,39.2290057 L32.0373468,42.0369355 L36.559715,42.1599533 L41.0918465,42.0369355 L41.0820832,41.6991248 L41.0820832,39.2290057 Z M12.7547967,16.5390582 C12.8504772,16.4941469 12.955921,16.4570463 13.0535542,16.4140877 L16.1387622,17.7789993 C16.9940287,17.404088 17.8883485,17.0545613 18.8061002,16.7245612 C19.1341477,16.8710109 19.3606566,16.9705967 19.3782306,16.9803601 C19.4465738,17.033082 20.1749172,17.5817804 20.3057457,18.2300646 C20.3252723,18.3296504 20.3330829,18.4311889 20.3330829,18.5229641 C20.3330829,18.8803015 20.2120178,19.167343 20.1339113,19.3216034 C20.0362781,19.3333193 19.891781,19.3489406 19.712136,19.3626093 L16.1387622,17.7789993 C15.2854483,18.1597687 14.498525,18.5542067 13.7545603,18.9603606 L13.744797,18.958408 C13.744797,18.9564553 11.7355064,18.0660409 10.6556836,17.5876383 C11.3293525,17.230301 12.0069266,16.8710109 12.7547967,16.5390582 Z M16.9881707,20.1221953 C18.8627275,20.1944439 20.3350356,19.9972249 20.3975208,19.9894142 L20.5478759,19.9679349 L20.6357458,19.8429645 C20.6572251,19.8117218 21.1766335,19.0540885 20.9852725,18.0953308 C20.7958641,17.1443838 19.8000059,16.4277563 19.7589999,16.3965137 C19.6984674,16.3613658 15.8888213,14.6762174 15.8888213,14.6762174 L15.7638508,14.6215428 L15.634975,14.6645014 C14.5356256,15.0452707 13.4714241,15.461188 12.4755658,15.9024899 C11.4777549,16.3457445 10.5326658,16.818289 9.67349399,17.3064548 L9.07402636,17.6462182 L13.51243,19.6105975 C13.6237318,19.6457455 15.107756,20.0479941 16.9881707,20.1221953 Z M7.21313823,33.851371 C6.65467653,33.4042111 6.14698407,32.9472879 5.69396618,32.482554 L9.8804763,31.7151573 C9.43526907,31.2367548 9.0662157,30.7563996 8.73816827,30.2760445 C8.86899671,30.2526125 8.95296123,30.2350385 8.95296123,30.2350385 C8.93148194,30.2389439 10.6283463,30.1217841 12.352548,30.360009 C13.350359,30.5006008 14.1411876,30.6958671 14.6430221,30.8403642 L9.8804763,31.7151573 C10.3256835,32.1877018 10.8314233,32.6485304 11.3703584,33.0878796 C10.2280504,33.2968146 7.81455853,33.7400692 7.21313823,33.851371 Z M14.5961582,32.3888262 C15.5431999,31.5862815 15.7130816,30.8071689 15.7208922,30.7759263 L15.7794721,30.4830268 L15.5002413,30.3795356 C15.449472,30.360009 14.2505368,29.9226124 12.4482285,29.6726715 C10.647873,29.4207779 8.93538726,29.5437957 8.86509138,29.5496537 C8.82799078,29.5516064 3.85065203,30.4654528 3.85065203,30.4654528 L3.34881756,30.5591807 L3.6182851,30.9926719 C4.0010071,31.6038555 4.47355162,32.2091811 5.02225001,32.7949801 C5.56704307,33.3768738 6.19775332,33.9509568 6.89485411,34.4937972 L7.0178719,34.593383 L12.1475184,33.6521993 C12.2510095,33.6209567 13.6881697,33.1581755 14.5961582,32.3888262 Z M4.53798951,22.5981724 C4.83674699,22.1666338 5.13940981,21.7370479 5.52994247,21.3211306 C5.58071171,21.2684087 5.63929161,21.2137341 5.69396618,21.1590595 L9.8804763,21.9284089 C10.3256835,21.451959 10.8314233,20.9969885 11.3703584,20.5517812 C11.7628437,20.6240298 12.0225479,20.674799 12.0225479,20.674799 C12.0225479,20.6767517 13.356217,21.1102429 14.1489983,21.7819591 C14.5824895,22.1510125 14.7992352,22.4888232 14.916395,22.7211902 C14.8402411,22.7426695 14.7445606,22.7719594 14.6430221,22.8012494 L9.8804763,21.9284089 C9.43526907,22.4048587 9.06426304,22.8852139 8.73621561,23.3655691 C8.06645209,23.2445039 5.62952829,22.797344 4.53798951,22.5981724 Z M12.4482285,23.9669893 C14.2505368,23.7190011 15.449472,23.2816045 15.5002413,23.2640306 L15.7814248,23.1605394 L15.7208922,22.8656872 C15.7130816,22.8363973 15.5431999,22.055332 14.5961582,21.25474 C13.6881697,20.4814854 12.2510095,20.0206568 12.190477,20.0011302 C12.1475184,19.9933195 7.1721323,19.0794731 7.1721323,19.0794731 L7.0178719,19.0501832 L6.89485411,19.1458637 C6.19970598,19.6906567 5.56899573,20.2627871 5.02225001,20.8485861 C4.47355162,21.4304797 4.0010071,22.0416633 3.6182851,22.6508943 L3.34881756,23.0843855 L8.82799078,24.0880545 C8.93538726,24.0997705 10.647873,24.2188829 12.4482285,23.9669893 Z M15.7384662,38.2741533 C14.8089985,37.9480586 13.9107734,37.5965792 13.0535542,37.2255732 L16.1387622,35.8587088 C15.287401,35.4837975 14.5004777,35.0874068 13.7584656,34.6812529 C13.7779922,34.6734422 13.7936136,34.6656316 13.7936136,34.6656316 C13.7604183,34.6773476 15.2190578,34.2848622 17.0174607,34.2126137 C18.1461,34.1696551 19.126337,34.228235 19.712136,34.2809569 L16.1387622,35.8587088 C16.9940287,36.2414309 17.8883485,36.5850996 18.8061002,36.9150997 C17.8278159,37.3485909 15.9239692,38.1921415 15.7384662,38.2741533 Z M20.9852725,35.5462827 C21.1766335,34.587525 20.6572251,33.8318443 20.6337931,33.8006017 L20.5459232,33.6756313 L20.3975208,33.6521993 C20.3350356,33.6443887 18.8627275,33.445217 16.9881707,33.5194182 C15.107756,33.5916668 13.6237318,33.9958681 13.5612466,34.013442 C13.51243,34.031016 9.70278394,35.7181171 9.70278394,35.7181171 L9.07207369,35.9993006 L9.67349399,36.3351587 C10.5365712,36.8252772 11.4797075,37.2997744 12.4755658,37.7371709 C13.4714241,38.1784728 14.5356256,38.5963428 15.634975,38.9751595 L15.7638508,39.0220234 L19.6984674,37.2822004 C19.8000059,37.2138572 20.7958641,36.4952771 20.9852725,35.5462827 Z M60.3646333,37.1025554 C60.2689528,37.145514 60.1635089,37.1826146 60.0658758,37.2255732 L56.9787151,35.8587088 C56.1273539,36.2414309 55.2310814,36.5850996 54.3152824,36.9150997 C53.9852823,36.7706026 53.760726,36.6710168 53.743152,36.6612535 C53.6709035,36.6104842 52.9464654,36.0617858 52.8156369,35.4095963 C52.7961103,35.3080578 52.786347,35.2123773 52.786347,35.1186495 C52.786347,34.7613121 52.9074121,34.4781759 52.9874713,34.3219628 C53.0851045,34.3102469 53.2296016,34.2946255 53.4072939,34.2809569 L56.9787151,35.8587088 C57.8339816,35.4837975 58.6209049,35.0874068 59.3668223,34.6812529 L59.3765856,34.6851582 C59.3765856,34.6871109 61.3839235,35.5755727 62.4637463,36.0539752 C61.7920301,36.4093599 61.114456,36.7706026 60.3646333,37.1025554 Z M56.1312592,33.5194182 C54.2586551,33.445217 52.7843943,33.6443887 52.7238618,33.6521993 L52.5735067,33.6756313 L52.4856368,33.8006017 C52.4641576,33.8318443 51.9427965,34.587525 52.1361101,35.5462827 C52.3235658,36.4952771 53.3194241,37.2138572 53.36043,37.2450998 C53.4229152,37.2822004 57.2325613,38.9634435 57.2325613,38.9634435 L57.3575318,39.0220234 L57.4864076,38.9751595 C58.5877097,38.5963428 59.6499585,38.1784728 60.6438641,37.7371709 C61.6436277,37.295869 62.5887168,36.8233245 63.4478886,36.3351587 L64.0493089,35.9993006 L59.6109052,34.031016 C59.4976508,33.9958681 58.0136267,33.5916668 56.1312592,33.5194182 Z M68.5853458,31.0453938 C68.2846356,31.4730271 67.9819728,31.9045657 67.5894875,32.3224356 C67.5426236,32.3751575 67.4801383,32.4259268 67.4293691,32.482554 L63.2409063,31.7151573 C62.7956991,32.1877018 62.2899593,32.6446251 61.7510242,33.0878796 C61.3585389,33.0156311 61.096882,32.9668145 61.096882,32.9668145 L61.096882,32.9687672 C61.096882,32.9629092 59.7651656,32.5313706 58.9723843,31.8596544 C58.5369404,31.490601 58.3201948,31.1508376 58.2010823,30.9204234 C58.2791889,30.8950387 58.3748694,30.8696541 58.4764079,30.8403642 L63.2409063,31.7151573 C63.6861135,31.2367548 64.0551669,30.7563996 64.3832143,30.2740918 C65.0549305,30.3971096 67.4918543,30.8442695 68.5853458,31.0453938 Z M60.6712014,29.6726715 C58.8708458,29.9226124 57.6699579,30.360009 57.6191887,30.3795356 L57.3399578,30.4830268 L57.4004904,30.7759263 C57.408301,30.8071689 57.5801354,31.5862815 58.5232718,32.3888262 C59.4332129,33.1581755 60.8703731,33.6209567 60.9309056,33.6404833 C60.9719116,33.6521993 65.9492503,34.5640931 65.9492503,34.5640931 L66.101558,34.593383 L66.2265285,34.4937972 C66.9236293,33.9509568 67.5523869,33.3788265 68.0991326,32.7949801 C68.6497836,32.2072285 69.1203755,31.5999502 69.5011448,30.9926719 L69.772565,30.5591807 L64.2933918,29.5516064 C64.1840427,29.5437957 62.4735096,29.4207779 60.6712014,29.6726715 Z M57.3790111,15.3694128 C58.3104315,15.6935549 59.2106093,16.0450343 60.0658758,16.4140877 L56.9787151,17.7789993 C57.8339816,18.1558634 58.6209049,18.5542067 59.3648697,18.9603606 C59.3414377,18.970124 59.3277691,18.975982 59.3277691,18.975982 C59.3609643,18.9623133 57.9042775,19.3606566 56.1058746,19.4289998 C54.9752826,19.4719584 53.9950456,19.4133785 53.4072939,19.3626093 L56.9787151,17.7789993 C56.1273539,17.404088 55.2310814,17.0545613 54.3152824,16.7245612 C55.2935667,16.2910699 57.1974134,15.4514247 57.3790111,15.3694128 Z M52.1361101,18.0953308 C51.9447491,19.0540885 52.4641576,19.8117218 52.4856368,19.8429645 L52.5735067,19.9679349 L52.7238618,19.9894142 C52.7843943,19.9972249 54.2586551,20.1944439 56.1312592,20.1221953 C58.0155793,20.0479941 59.4976508,19.6457455 59.560136,19.6301242 C59.6109052,19.6105975 63.4185987,17.9254491 63.4185987,17.9254491 L64.0493089,17.6462182 L63.4478886,17.3064548 C62.5867641,16.818289 61.6436277,16.3457445 60.6438641,15.9024899 C59.6460532,15.461188 58.5838043,15.0452707 57.4844549,14.6645014 L57.3555791,14.6215428 L57.2325613,14.6762174 L53.4229152,16.3613658 C53.3194241,16.4277563 52.3255185,17.1443838 52.1361101,18.0953308 Z M71.6666484,32.0959267 C71.5143407,33.0156311 71.1999619,33.9099509 70.7352281,34.778886 L70.7352281,31.5687076 C70.3310268,32.2130865 69.8467663,32.8437967 69.2804939,33.4588857 L69.2804939,34.6753949 C68.3295469,35.7435017 67.1794282,36.7588866 65.8379485,37.7059283 L65.8379485,36.333206 C65.3790726,36.6417268 64.8909068,36.9404843 64.3832143,37.2314311 L64.3832143,40.8497162 C64.0043977,41.0742725 63.6099597,41.2929708 63.207711,41.5097164 L63.207711,37.8719047 C62.7410245,38.1159876 62.256764,38.3542125 61.7549295,38.5865795 L61.7549295,40.1057515 C61.508894,40.2287693 61.264811,40.3478818 61.0109648,40.4611362 C59.728065,41.0508406 58.3572954,41.581965 56.9279459,42.0662255 L56.9279459,40.4455149 C56.4495433,40.5978227 55.9652829,40.7462251 55.471259,40.8868168 L55.471259,44.6203091 C54.8991287,44.7882381 54.311377,44.9522618 53.7138621,45.1045696 L53.7138621,41.3632667 C53.2335069,41.4823792 52.7492464,41.599539 52.2591279,41.7088881 L52.2591279,43.3959892 C50.1580622,43.8939183 47.9593633,44.296167 45.6845106,44.5832085 L45.6845106,42.8316695 C45.2041554,42.8902494 44.7198949,42.9429713 44.2297764,42.9917879 L44.2297764,46.7877653 C43.4194211,46.8717299 42.5973499,46.9420257 41.767468,46.998653 L41.767468,43.2007229 C41.2871128,43.2339181 40.8008997,43.2573501 40.3127338,43.2807821 L40.3127338,45.0518477 C39.0727926,45.1162856 37.8211355,45.1592441 36.5577623,45.1592441 C35.3002471,45.1592441 34.054448,45.1123802 32.8203648,45.0518477 L32.8203648,43.2827347 C32.3341516,43.2573501 31.8479384,43.2339181 31.3656306,43.2007229 L31.3656306,46.998653 C30.5357487,46.9420257 29.7156301,46.8717299 28.9033222,46.7877653 L28.9033222,42.9917879 C28.417109,42.9429713 27.9308958,42.8902494 27.448588,42.8316695 L27.448588,44.5832085 C25.1756879,44.296167 22.9769891,43.8939183 20.8739707,43.3959892 L20.8739707,41.7088881 C20.3838522,41.599539 19.8995917,41.4843318 19.4192365,41.3632667 L19.4192365,45.1045696 C18.8236742,44.9522618 18.2378752,44.7882381 17.6618396,44.6203091 L17.6618396,40.8868168 C17.1697684,40.7462251 16.6835552,40.5978227 16.2071054,40.4455149 L16.2071054,42.0662255 C14.7777559,41.581965 13.4069862,41.0508406 12.1240864,40.4611362 C11.8702402,40.3478818 11.6242046,40.2287693 11.3801217,40.1057515 L11.3801217,38.5865795 C10.8782872,38.3542125 10.3940267,38.1159876 9.92538756,37.8719047 L9.92538756,41.5097164 C9.52313892,41.2929708 9.12870093,41.0762252 8.74988425,40.8497162 L8.74988425,37.2314311 C8.24219179,36.9404843 7.75402597,36.6417268 7.29515009,36.333206 L7.29515009,37.7059283 C5.95562307,36.7588866 4.80355172,35.7435017 3.85260469,34.6753949 L3.85260469,33.4608383 C3.28633233,32.8437967 2.80207184,32.2130865 2.39787053,31.5687076 L2.39787053,34.778886 C1.93313667,33.9099509 1.61875788,33.0156311 1.4684028,32.0959267 L1.4684028,30.2643285 L1.47035547,30.2643285 L1.47035547,26.503499 C1.47035547,17.7458041 17.1560998,10.6205357 36.5675256,10.5853878 C55.9769988,10.6205357 71.6646958,17.7458041 71.6646958,26.503499 L71.6646958,30.2643285 L71.6666484,30.2643285 L71.6666484,32.0959267 Z M69.2804939,41.1387104 C68.3061149,42.1150421 67.1559962,43.0445098 65.8379485,43.9114923 L65.8379485,39.1255145 C67.1364696,38.270248 68.2924463,37.3544489 69.2804939,36.3859279 L69.2804939,41.1387104 Z M69.2804939,43.5541549 C68.3002569,44.493386 67.1481856,45.3779424 65.8379485,46.2117297 L65.8379485,45.3115519 C67.1267063,44.5090073 68.2748723,43.6556934 69.2804939,42.7574683 L69.2804939,43.5541549 Z M61.7549295,46.1648657 C61.653391,46.2117297 61.5557579,46.2624989 61.4503141,46.3113155 C60.0346332,46.9478837 58.5193664,47.5239194 56.9279459,48.0394225 L56.9279459,43.3120247 C58.5349878,42.7789476 60.0697811,42.1911959 61.503036,41.5311957 C61.5889532,41.4940951 61.6690124,41.4511365 61.7549295,41.4120833 L61.7549295,46.1648657 Z M61.7549295,48.3967599 C61.6846337,48.4299552 61.6162904,48.4611978 61.5459946,48.4963457 C60.1010237,49.1309613 58.5525617,49.7050443 56.9279459,50.2146894 L56.9279459,49.2696004 C58.6248103,48.7365233 60.2435681,48.1311977 61.7549295,47.4633868 L61.7549295,48.3967599 Z M52.2591279,49.3145116 C50.1561095,49.7968195 47.955458,50.1775888 45.6845106,50.4568197 L45.6845106,45.7723804 C47.955458,45.4911969 50.1522042,45.0987116 52.2591279,44.6124984 L52.2591279,49.3145116 Z M52.2591279,51.4565833 C50.1541569,51.9291278 47.955458,52.2981812 45.6845106,52.5696014 L45.6845106,51.6459916 C47.9515527,51.3726188 50.1522042,50.9957548 52.2591279,50.5251629 L52.2591279,51.4565833 Z M40.3127338,50.9039796 C39.0747453,50.9684175 37.8289461,51.0074707 36.5675256,51.0074707 C35.3061051,51.0074707 34.0603059,50.9684175 32.8203648,50.9039796 L32.8203648,46.233209 C34.0564006,46.2956942 35.3002471,46.3386528 36.5577623,46.3386528 C37.8211355,46.3386528 39.0727926,46.2956942 40.3127338,46.233209 L40.3127338,50.9039796 Z M40.3127338,53.006998 C39.0727926,53.0675305 37.8289461,53.1065838 36.5675256,53.1065838 C35.3061051,53.1065838 34.0603059,53.0675305 32.8203648,53.006998 L32.8203648,52.0853409 C34.0564006,52.1478261 35.3002471,52.188832 36.5577623,52.188832 C36.5616676,52.188832 36.5636203,52.188832 36.5675256,52.188832 C36.5694783,52.188832 36.5733836,52.188832 36.5753363,52.188832 C37.8308988,52.188832 39.076698,52.1439208 40.3127338,52.0853409 L40.3127338,53.006998 Z M27.448588,50.4568197 C25.1776406,50.1775888 22.9789417,49.7968195 20.8739707,49.3145116 L20.8739707,44.6124984 C22.9808944,45.0987116 25.1795933,45.4911969 27.448588,45.7723804 L27.448588,50.4568197 Z M27.448588,52.5696014 C25.1795933,52.2981812 22.9789417,51.9291278 20.8739707,51.4565833 L20.8739707,50.5251629 C22.9808944,50.9957548 25.1815459,51.3726188 27.448588,51.6459916 L27.448588,52.5696014 Z M16.2071054,48.0394225 C14.6156848,47.5239194 13.1004181,46.9478837 11.6827845,46.3113155 C11.5792934,46.2624989 11.4816602,46.2117297 11.3801217,46.1648657 L11.3801217,41.4120833 C11.4640862,41.4511365 11.5441454,41.4940951 11.6300626,41.5311957 C13.0633175,42.1911959 14.5981108,42.7809002 16.2071054,43.3120247 L16.2071054,48.0394225 Z M16.2071054,50.2146894 C14.5824895,49.7050443 13.0340275,49.1309613 11.5890567,48.4963457 C11.5187608,48.4611978 11.4484649,48.4299552 11.3801217,48.3987126 L11.3801217,47.4653395 C12.8895304,48.1311977 14.5082883,48.7365233 16.2071054,49.2696004 L16.2071054,50.2146894 Z M7.29515009,43.9114923 C5.97710236,43.0445098 4.82698368,42.1150421 3.85260469,41.1387104 L3.85260469,36.3859279 C4.84065232,37.3544489 5.996629,38.270248 7.29515009,39.1255145 L7.29515009,43.9114923 Z M7.29515009,46.2117297 C5.98686568,45.3779424 4.83479433,44.493386 3.85260469,43.5541549 L3.85260469,42.7574683 C4.85822629,43.6576461 6.00834498,44.5090073 7.29515009,45.3115519 L7.29515009,46.2117297 Z M3.85260469,17.6559816 C4.82698368,16.7226085 5.97710236,15.8419574 7.29515009,15.0120755 L7.29515009,15.9786438 C5.97710236,16.7968097 4.83284167,17.6637922 3.85260469,18.5776386 L3.85260469,17.6559816 Z M11.3801217,12.8641458 C11.4972815,12.8133766 11.6085833,12.7567493 11.7257431,12.7098854 C13.129708,12.1065125 14.6313061,11.5675774 16.2071054,11.0813642 L16.2071054,12.0284059 C14.504383,12.5634357 12.8914831,13.170714 11.3801217,13.8404775 L11.3801217,12.8641458 Z M20.8173434,9.06426304 C22.8363973,8.6034345 24.949179,8.23242847 27.1166353,7.95710295 L27.1166353,9.72035791 C24.949179,9.99568343 22.83835,10.3569261 20.8173434,10.8079914 L20.8173434,9.06426304 Z M20.8173434,6.90852276 C20.9345032,5.57290106 22.3365155,4.10449826 24.3301847,4.01272308 C25.3807176,3.9639065 26.1715462,4.18651012 26.6811913,4.67272328 C26.8901263,4.87189493 27.0248601,5.09449855 27.1166353,5.30343352 L27.1166353,6.33834507 C24.9511317,6.60585995 22.8422553,6.96710266 20.8173434,7.41816788 L20.8173434,6.90852276 Z M32.2579977,7.49236908 C33.6814893,7.41426255 35.1264601,7.36349331 36.5675256,7.36349331 C38.0085911,7.36349331 39.4516093,7.41426255 40.8770535,7.49236908 L40.8770535,9.24976605 C39.4984732,9.17361218 38.1042716,9.12870093 36.6944487,9.12674827 L36.6944487,9.12089028 C36.6514901,9.12089028 36.6085316,9.12284294 36.5675256,9.12284294 C36.524567,9.12284294 36.4816084,9.12089028 36.4386498,9.12089028 L36.4386498,9.12674827 C35.0307796,9.12870093 33.6346253,9.17361218 32.2579977,9.24976605 L32.2579977,7.49236908 Z M32.2579977,5.6666289 C32.4200688,3.49721997 34.3161048,1.95656863 36.5675256,1.93508933 C38.8189464,1.95656863 40.7130298,3.49721997 40.8770535,5.6666289 L40.8770535,5.88532719 C39.4516093,5.80722066 38.0066385,5.76035674 36.5675256,5.76035674 C35.1264601,5.76035674 33.6834419,5.80722066 32.2579977,5.88532719 L32.2579977,5.6666289 Z M46.0164633,7.95710295 C48.1858723,8.23242847 50.298654,8.6034345 52.3157551,9.06426304 L52.3157551,10.8079914 C50.2947486,10.3569261 48.1858723,9.99568343 46.0164633,9.72035791 L46.0164633,7.95710295 Z M46.0164633,5.30343352 C46.1101912,5.09449855 46.2449249,4.87189493 46.4538599,4.67272328 C46.9615524,4.18651012 47.7543337,3.9639065 48.8048665,4.01272308 C50.7985358,4.10449826 52.1985953,5.57290106 52.3157551,6.90852276 L52.3157551,7.41816788 C50.2947486,6.96710266 48.1800143,6.60585995 46.0164633,6.33834507 L46.0164633,5.30343352 Z M56.9279459,11.0813642 C58.5017925,11.5675774 60.0053432,12.1065125 61.4093081,12.7098854 C61.5264679,12.7567493 61.6397224,12.8133766 61.7549295,12.8641458 L61.7549295,13.8404775 C60.2416155,13.170714 58.6287156,12.5634357 56.9279459,12.0284059 L56.9279459,11.0813642 Z M65.8379485,15.0120755 C67.1559962,15.8419574 68.3080676,16.7226085 69.2804939,17.6559816 L69.2804939,18.5776386 C68.3002569,17.6637922 67.1559962,16.7968097 65.8379485,15.9786438 L65.8379485,15.0120755 Z M73.1213826,21.9459828 C72.9358796,20.5771659 72.5121517,19.2571655 71.6666484,18.001603 L71.6666484,21.3640892 C71.3932756,20.9384086 71.0769441,20.5205386 70.7352281,20.1085267 L70.7352281,16.824147 C70.2783048,16.3281705 69.7940443,15.8419574 69.2804939,15.3674602 L69.2804939,16.3535551 C68.2787776,15.4826673 67.1306116,14.6566907 65.8379485,13.8834361 L65.8379485,12.6630215 C65.3673566,12.3447374 64.8850488,12.0342639 64.3832143,11.7296484 L64.3832143,15.1370459 C64.0043977,14.9300636 63.6099597,14.7269866 63.207711,14.521957 L63.207711,11.0501216 C63.1452258,11.0149737 63.0846932,10.9759204 63.0202554,10.9407725 C62.6062907,10.7142635 62.1825628,10.5033759 61.7549295,10.3002989 L61.7549295,11.7999443 C60.2455208,11.1536128 58.6267629,10.5814824 56.9279459,10.067932 L56.9279459,8.53118596 C56.4475907,8.39645219 55.9633302,8.27148174 55.471259,8.16017993 L55.471259,11.5949147 C54.9830932,11.4582282 54.4793061,11.3273998 53.9774716,11.2004767 L53.9774716,6.26414387 L53.3955779,6.22313794 C52.9464654,4.5438475 51.237885,2.94071093 48.8575884,2.83331445 C47.4711975,2.76887656 46.389422,3.10278198 45.6376467,3.82136208 C45.1885341,4.24899534 44.9464038,4.73325584 44.8116701,5.14722046 L44.3566995,5.13745714 L44.3566995,9.52899691 C43.7572319,9.46651168 43.1538589,9.40988444 42.5465807,9.3591152 L42.5290067,3.9424272 L41.8943911,3.93266389 C41.0391246,2.01514853 39.0161654,0.667810849 36.6436795,0.607278286 L36.6436795,0.599467633 C36.6182949,0.599467633 36.5948629,0.60337296 36.5675256,0.60337296 C36.5401883,0.60337296 36.5148037,0.599467633 36.4894191,0.599467633 L36.4894191,0.607278286 C34.1169332,0.667810849 32.0959267,2.01514853 31.2406601,3.93266389 L30.6040919,3.9424272 L30.5865179,9.3591152 C29.9792396,9.40988444 29.3758667,9.46651168 28.7763991,9.52899691 L28.7763991,5.13745714 L28.3214285,5.14722046 C28.1866947,4.73325584 27.9445645,4.24899534 27.4954519,3.82136208 C26.7456292,3.10278198 25.6619011,2.76887656 24.2755101,2.83331445 C21.8971662,2.94071093 20.1885859,4.5438475 19.7375206,6.22313794 L19.1575796,6.26414387 L19.1575796,11.2004767 C18.6537925,11.3273998 18.151958,11.4582282 17.6618396,11.5949147 L17.6618396,8.16017993 C17.1697684,8.27148174 16.6835552,8.39645219 16.2071054,8.53118596 L16.2071054,10.067932 C14.5063357,10.5814824 12.8875778,11.1536128 11.3801217,11.7999443 L11.3801217,10.3002989 C10.9505358,10.5033759 10.5268079,10.7142635 10.1128432,10.9407725 C10.050358,10.9759204 9.98787278,11.0149737 9.92538756,11.0501216 L9.92538756,14.521957 C9.52313892,14.7269866 9.13065359,14.9300636 8.74988425,15.1370459 L8.74988425,11.7296484 C8.24804978,12.0342639 7.76574195,12.3447374 7.29515009,12.6630215 L7.29515009,13.8834361 C6.00248699,14.6566907 4.85432096,15.4826673 3.85260469,16.3535551 L3.85260469,15.3674602 C3.33905424,15.8419574 2.85674641,16.3281705 2.39787053,16.824147 L2.39787053,20.1085267 C2.05810712,20.5205386 1.739823,20.9423139 1.4684028,21.3640892 L1.4684028,18.001603 C0.62094693,19.2571655 0.199171657,20.5771659 0.0136686431,21.9459828 C0.0078106532,21.9869888 0.0058579899,22.0279947 0,22.0690006 L0,40.1858107 C0.0058579899,40.230722 0.0058579899,40.2736806 0.0136686431,40.3146865 C0.199171657,41.6717875 0.622899593,42.9781192 1.4684028,44.2258711 L1.4684028,36.8779991 C1.74763365,37.2822004 2.05810712,37.684449 2.39787053,38.078887 L2.39787053,45.3935637 C2.85674641,45.8914929 3.33905424,46.3816114 3.85260469,46.8561086 L3.85260469,44.4972913 C4.8523683,45.3896584 6.00639231,46.2312563 7.29515009,47.0201323 L7.29515009,49.5585946 C7.76574195,49.874926 8.24804978,50.1853995 8.74988425,50.490015 L8.74988425,43.0132672 C9.13260626,43.2241548 9.52313892,43.4291845 9.92538756,43.6303088 L9.92538756,51.1695418 C9.98787278,51.2046897 10.050358,51.2417903 10.1128432,51.2788909 C10.5268079,51.5034472 10.9505358,51.7201928 11.3801217,51.9330331 L11.3801217,49.1622039 C12.8875778,49.8222041 14.5082883,50.4119084 16.2071054,50.9391275 L16.2071054,53.8837438 C16.6835552,54.0399568 17.1697684,54.1922646 17.6618396,54.334809 L17.6618396,46.604215 C18.2398279,46.7682387 18.8256269,46.9283571 19.4192365,47.0826175 L19.4192365,54.8132115 C19.9015444,54.932324 20.3838522,55.0494838 20.8739707,55.1568802 L20.8739707,52.1693054 C22.9808944,52.6320866 25.1795933,53.00114 27.448588,53.2667022 L27.448588,56.2288924 C27.9289432,56.2796616 28.417109,56.3265256 28.9033222,56.3733895 L28.9033222,48.7228547 C29.7175828,48.8068192 30.5377014,48.8751624 31.3656306,48.9317896 L31.3656306,56.5530345 C31.8479384,56.5823245 32.3341516,56.6057564 32.8203648,56.6272357 L32.8203648,53.7040987 C34.054448,53.760726 35.2943892,53.8017319 36.5519043,53.8017319 C36.5558096,53.8017319 36.5616676,53.8017319 36.5675256,53.8017319 C36.5733836,53.8017319 36.5772889,53.8017319 36.5831469,53.8017319 C37.8387094,53.8017319 39.0806033,53.760726 40.3127338,53.7021461 L40.3127338,56.6272357 C40.8008997,56.6057564 41.2851602,56.5803718 41.767468,56.5530345 L41.767468,48.9317896 C42.5953972,48.8751624 43.4174685,48.8068192 44.2297764,48.7228547 L44.2297764,56.3733895 C44.7159896,56.3265256 45.2041554,56.2796616 45.6845106,56.2288924 L45.6845106,53.2667022 C47.9515527,53.00114 50.1522042,52.6301339 52.2591279,52.1693054 L52.2591279,55.1568802 C52.7492464,55.0494838 53.2335069,54.932324 53.7138621,54.8132115 L53.7138621,47.0826175 C54.3094244,46.9283571 54.8932707,46.7682387 55.471259,46.604215 L55.471259,54.334809 C55.9633302,54.1922646 56.4475907,54.0399568 56.9279459,53.8817911 L56.9279459,50.9371749 C58.6267629,50.4119084 60.2455208,49.8222041 61.7549295,49.1622039 L61.7549295,51.9330331 C62.1825628,51.7201928 62.6062907,51.5034472 63.0202554,51.2788909 C63.0846932,51.2417903 63.1452258,51.2046897 63.207711,51.1695418 L63.207711,43.6303088 C63.6099597,43.4291845 64.002445,43.2241548 64.3832143,43.0132672 L64.3832143,50.4880623 C64.8850488,50.1853995 65.3673566,49.874926 65.8379485,49.5585946 L65.8379485,47.0201323 C67.1267063,46.2312563 68.2826829,45.3877058 69.2804939,44.4972913 L69.2804939,46.8541559 C69.795997,46.3816114 70.2783048,45.8914929 70.7352281,45.3935637 L70.7352281,38.078887 C71.0749915,37.684449 71.3854649,37.2822004 71.6666484,36.8779991 L71.6666484,44.2258711 C72.510199,42.9781192 72.9339269,41.6717875 73.1213826,40.3146865 C73.1272406,40.2736806 73.1272406,40.230722 73.1330986,40.1858107 L73.1330986,22.0690006 C73.1272406,22.0279947 73.1272406,21.9869888 73.1213826,21.9459828 Z M65.4376525,26.8217831 C65.4376525,27.3294756 65.365404,27.8274047 65.2560548,28.3233812 C64.965108,28.3233812 64.7815577,28.3233812 64.7815577,28.3233812 C64.7815577,28.3194758 63.1315572,28.1437361 61.7646929,27.6360437 C60.9719116,27.3431442 60.4310238,27.0365761 60.0971184,26.8217831 L65.4376525,26.8217831 C65.4376525,26.312138 65.365404,25.8122562 65.2560548,25.3182324 C66.310493,25.3182324 68.9895471,25.3182324 69.8701982,25.3182324 C69.9854053,25.8181142 70.0752279,26.317996 70.0752279,26.8217831 L65.4376525,26.8217831 Z M70.4325652,24.6250369 L64.7815577,24.6250369 C64.6741612,24.6348002 62.9831548,24.8144452 61.5245153,25.3533803 C60.0502545,25.9020787 59.2926211,26.5288836 59.2613785,26.5562209 L58.945047,26.8217831 L59.2613785,27.0853926 C59.2926211,27.1127299 60.0502545,27.7395348 61.5225626,28.2862806 C62.9831548,28.8271683 64.6741612,29.0068133 64.744457,29.014624 C64.7815577,29.014624 70.167003,29.014624 70.167003,29.014624 L70.4325652,29.014624 L70.5028611,28.7646831 C70.6805535,28.1242095 70.770376,27.4700673 70.770376,26.8217831 C70.770376,26.1695936 70.6805535,25.517404 70.5028611,24.8788831 L70.4325652,24.6250369 Z M23.6643265,13.3113057 C23.6643265,13.3113057 23.7502437,13.2995897 23.8888828,13.2761578 L25.5095934,15.0120755 C26.677286,14.7953298 27.8566946,14.6176375 29.0439139,14.4653297 C29.182553,14.6137321 29.2821389,14.7211286 29.3075235,14.7445606 C29.3211921,14.8011878 29.3446241,14.8968683 29.3446241,15.055034 C29.3446241,15.287401 29.2879968,15.5998271 29.0575826,15.9239692 C28.6162807,16.5429635 27.8957479,16.9803601 27.7043869,17.0916619 C27.6555703,17.0897092 27.5598898,17.0838512 27.4407774,17.0760406 L25.5095934,15.0120755 C24.345806,15.2229631 23.2308353,15.4650933 22.1510125,15.7267502 C22.1412492,15.7228449 22.1236752,15.7130816 22.1197699,15.7091763 C22.0631426,15.6505964 21.0321364,14.5473416 20.512728,13.9927852 C21.3465152,13.8131402 23.6643265,13.3113057 23.6643265,13.3113057 Z M21.6804206,16.255922 L21.7194739,16.2793539 C21.7643851,16.3066912 22.80906,16.9452121 24.5039718,17.3337921 C26.1754515,17.7223721 27.7082922,17.7887627 27.7746828,17.7907153 L27.8684106,17.7946207 L27.9504225,17.7497094 C27.9953337,17.7262774 29.0224346,17.1717211 29.6238549,16.3262179 C30.2838551,15.3987028 29.9577604,14.4887617 29.9440917,14.4497084 L29.9206598,14.3852705 L27.6868129,11.9971633 L27.5149786,12.0245006 L23.5374034,12.6317789 L19.1575796,13.5749153 L19.5871656,14.0201225 L21.6804206,16.255922 Z M49.4551034,40.3283551 C49.4551034,40.3283551 49.3691862,40.3420238 49.2324998,40.3635031 L47.6117893,38.6314907 C46.4440966,38.8462837 45.2627353,39.0239761 44.0774687,39.1743311 C43.9368769,39.0278814 43.8372911,38.9204849 43.8158118,38.8951003 C43.7982378,38.8423784 43.7767585,38.7427925 43.7767585,38.5865795 C43.7767585,38.3542125 43.8333858,38.0398338 44.0638,37.7176443 C44.5051019,37.0947447 45.2256347,36.6593008 45.4169957,36.5519043 C45.4638596,36.5519043 45.5614928,36.5616676 45.6786526,36.5675256 L47.6117893,38.6314907 C48.7736239,38.4186504 49.8885947,38.1765202 50.9703701,37.9129106 C50.9781808,37.9187686 50.9957548,37.9304846 50.9996601,37.9304846 C51.05824,37.9910172 52.0892462,39.0942719 52.6086546,39.6488283 C51.7729147,39.830426 49.4551034,40.3283551 49.4551034,40.3283551 Z M51.440962,37.3837389 L51.3999561,37.3603069 C51.3569975,37.331017 50.3103699,36.6983541 48.6154582,36.3058687 C46.9459311,35.9192414 45.4130904,35.8528509 45.3466998,35.8508982 L45.252972,35.8469929 L45.1690075,35.8919041 C45.1280015,35.9133834 44.098948,36.4679398 43.4975277,37.313443 C42.8375275,38.2468161 43.1616696,39.1508992 43.1772909,39.1899524 L43.2007229,39.2602483 L45.4345697,41.6444502 L49.5800739,41.0117873 L53.963803,40.0666983 L53.5322644,39.621491 L51.440962,37.3837389 Z M45.6923212,12.7372227 C45.9559308,12.7782286 48.4709611,13.1609506 49.2324998,13.2761578 L47.6117893,15.0101228 C48.7755766,15.2229631 49.8885947,15.4650933 50.9703701,15.7267502 C50.7946304,15.8282887 49.8846893,16.3320758 48.4611978,16.6620759 C47.2759312,16.9334961 46.1882977,17.03894 45.6806052,17.0760406 L47.6117893,15.0120755 C46.4440966,14.7953298 45.2627353,14.6156848 44.0774687,14.4653297 C44.5578239,13.9537319 45.5263448,12.9149151 45.6923212,12.7372227 Z M45.1690075,17.7497094 L45.252972,17.7946207 L45.3486525,17.7907153 C45.4130904,17.7887627 46.9459311,17.7223721 48.6154582,17.3337921 C50.3103699,16.9452121 51.3569975,16.3066912 51.3999561,16.2793539 L51.440962,16.255922 L53.952087,13.5710099 L49.5800739,12.6317789 L45.4248064,11.9971633 L45.3095992,12.1299444 L43.2007229,14.3852705 L43.1772909,14.4497084 C43.1616696,14.4887617 42.8375275,15.3987028 43.495575,16.3262179 C44.098948,17.1717211 45.1280015,17.7262774 45.1690075,17.7497094 Z M3.2511844,28.3233812 C3.1340246,27.825452 3.04615475,27.3255702 3.04615475,26.8276411 L3.04615475,26.8217831 L7.68373009,26.8217831 C7.68373009,27.3294756 7.75402597,27.8274047 7.86532777,28.3233812 C6.72106708,28.3233812 3.68272298,28.3233812 3.2511844,28.3233812 Z M7.86532777,25.3182324 L8.33982496,25.3182324 C8.33982496,25.3221377 9.98787278,25.49983 11.3566898,26.0055698 C12.1494711,26.300422 12.6884061,26.6050375 13.0242642,26.8217831 L7.68373009,26.8217831 C7.68373009,26.312138 7.75402597,25.8122562 7.86532777,25.3182324 Z M11.59882,28.2862806 C13.0711281,27.7395348 13.8268088,27.1127299 13.8580514,27.0853926 L14.1743829,26.8217831 L13.8580514,26.5562209 C13.8268088,26.5288836 13.0711281,25.9020787 11.59882,25.3533803 C10.1382279,24.8144452 8.44722144,24.6348002 8.37302023,24.6289422 C8.33982496,24.6250369 2.95242691,24.6250369 2.95242691,24.6250369 L2.68881736,24.6250369 L2.61852149,24.8788831 C2.44082913,25.5193567 2.35100661,26.1734989 2.35100661,26.8217831 C2.35100661,27.4681146 2.44082913,28.1222569 2.61852149,28.7646831 L2.68881736,29.014624 L8.33982496,29.014624 C8.44722144,29.0068133 10.1382279,28.8271683 11.59882,28.2862806 L11.59882,28.2862806 Z" id="Fill-1"></path>
            <polyline id="Fill-4" points="124.915777 13.0145009 120.569148 13.0145009 120.569148 44.5773505 125.294593 44.5773505 125.294593 45.4755756 111.545891 45.4755756 111.545891 44.5773505 116.033111 44.5773505 116.033111 13.2546785 106.158493 45.4755756 105.213404 45.4755756 95.0576021 13.0145009 95.0576021 44.5773505 99.2636389 44.5773505 99.2636389 45.4755756 90.0490208 45.4755756 90.0490208 44.5773505 93.8742882 44.5773505 93.8742882 13.0145009 89.8127485 13.0145009 89.8127485 12.1221338 99.8279586 12.1221338 107.624943 37.1611353 115.183703 12.1221338 124.915777 12.1221338 124.915777 13.0145009"></polyline>
            <path d="M137.81507,13.1101814 L137.81507,44.48167 L140.509746,44.48167 C145.137558,44.5304866 151.138092,44.48167 152.366317,37.110366 C152.791998,34.7515488 152.840815,28.6065173 152.840815,28.2784699 C152.840815,25.540836 152.69827,20.4365741 151.800045,18.0738515 C149.816139,13.1101814 144.618149,13.1101814 141.640338,13.1101814 L137.81507,13.1101814 Z M128.508677,44.5773505 L132.947081,44.5773505 L132.947081,13.0145009 L128.744949,13.0145009 L128.744949,12.1221338 L139.326432,12.1221338 C142.68306,12.1221338 145.612055,12.1221338 148.209097,12.9246784 C153.73904,14.6234955 158.462532,20.2491184 158.462532,28.7021979 C158.462532,33.2850986 156.951171,37.7762242 153.832767,41.0781778 C149.769275,45.4306643 145.37383,45.4306643 141.595427,45.4755756 L128.508677,45.4755756 L128.508677,44.5773505 L128.508677,44.5773505 Z" id="Fill-5"></path>
            <path d="M170.285908,13.1101188 L170.285908,27.1927891 L172.316678,27.1927891 C174.349401,27.1927891 177.182715,27.1927891 178.977213,26.0582917 C180.82248,24.8281139 181.435616,22.4673439 181.435616,20.2491184 C181.435616,18.737757 181.056799,16.6074014 180.113663,15.3811288 C178.364077,13.0652701 175.056265,13.1101188 172.316678,13.1101188 L170.285908,13.1101188 Z M174.775081,44.5773505 L174.775081,45.4755756 L161.024426,45.4755756 L161.024426,44.5773505 L165.562416,44.5773505 L165.562416,13.0145009 L161.024426,13.0145009 L161.024426,12.1221338 L174.115081,12.1221338 C177.752893,12.1221338 181.293071,12.1221338 183.93893,14.1978149 C185.3097,15.2405371 186.633606,17.033082 186.633606,19.7746212 C186.633606,21.852255 185.831061,23.7404804 184.034611,25.2518418 C181.293071,27.5208366 177.514668,27.8039727 176.239579,27.9016059 C178.600349,28.1847421 180.916207,28.9404228 182.665794,30.545512 C184.885972,32.5782345 185.497156,35.0346849 185.497156,37.9148633 C185.497156,41.4589472 185.497156,42.1716693 185.688517,42.7828529 C186.065381,44.057942 187.057334,44.6242144 188.049286,44.6242144 C188.851831,44.6242144 189.46692,44.296167 190.035145,43.9661669 L190.365145,44.8136227 C189.705145,45.2393033 188.760056,45.7626171 186.916742,45.7626171 C184.600883,45.7626171 183.18325,44.7687115 182.427569,44.0130308 C180.301118,42.0271722 180.209343,39.2426743 180.158574,36.6397742 L180.158574,35.6009573 C180.158574,33.4295957 180.158574,29.8855118 176.803899,28.7510144 C175.151945,28.1847421 173.638631,28.1847421 170.285908,28.2784699 L170.285908,44.5773505 L174.775081,44.5773505 L174.775081,44.5773505 Z" id="Fill-6"></path>
            <path d="M217.768822,22.6528469 C215.216691,13.2058619 212.713377,13.0145009 208.128523,13.0145009 L206.855387,13.0145009 L206.855387,44.5773505 L211.721424,44.5773505 L211.721424,45.4755756 L197.027632,45.4755756 L197.027632,44.5773505 L202.034261,44.5773505 L202.034261,13.0145009 L200.807988,13.0145009 C198.066449,13.0145009 196.742543,13.0145009 195.184318,14.1978149 C192.587276,16.2285847 191.642187,20.6708937 191.216506,22.6528469 L190.413962,22.6528469 L190.83769,12.1221338 L217.768822,12.1221338 L218.524503,22.6528469 L217.768822,22.6528469" id="Fill-7"></path>
            <path d="M225.723972,14.5610102 C226.292197,14.5610102 227.202138,14.6586434 227.202138,13.906868 C227.202138,13.3894123 226.612434,13.3093531 226.120363,13.3093531 L224.939002,13.3093531 L224.939002,14.5610102 L225.723972,14.5610102 Z M227.608292,16.8612476 L227.020541,16.8612476 L225.87628,15.0159808 L224.939002,15.0159808 L224.939002,16.8612476 L224.484031,16.8612476 L224.484031,12.8563352 L226.23557,12.8563352 C227.295866,12.8563352 227.657109,13.2546785 227.657109,13.9166313 C227.657109,14.6996493 227.104505,14.9945015 226.397641,15.0159808 L227.608292,16.8612476 Z M229.018115,14.7758032 C229.018115,12.9988796 227.598529,11.5792934 225.819653,11.5792934 C224.031013,11.5792934 222.601664,12.9988796 222.601664,14.7758032 C222.601664,16.5781114 224.031013,17.995745 225.819653,17.995745 C227.598529,17.995745 229.018115,16.5781114 229.018115,14.7758032 Z M222.146693,14.7758032 C222.146693,12.7626073 223.794741,11.1223702 225.819653,11.1223702 C227.836754,11.1223702 229.471133,12.7626073 229.471133,14.7758032 C229.471133,16.806573 227.836754,18.4507155 225.819653,18.4507155 C223.794741,18.4507155 222.146693,16.806573 222.146693,14.7758032 L222.146693,14.7758032 Z" id="Fill-8"></path>
        </g>
    </g>
</svg>
